<?xml version="1.0" encoding="UTF-8"?>
<svg version="1.1" xmlns="http://www.w3.org/2000/svg" width="1270" height="1270" fill="none">
<path d="M0 0 C1.14783237 -0.00500704 2.29566475 -0.01001407 3.47827992 -0.01517284 C5.36678011 -0.00814934 5.36678011 -0.00814934 7.29343182 -0.00098395 C8.65155495 -0.00307019 10.00967698 -0.00603266 11.36779651 -0.00979269 C15.11543691 -0.01760683 18.86297476 -0.01290726 22.61061355 -0.00623678 C26.68186865 -0.00117775 30.75310765 -0.0076775 34.82436049 -0.01272345 C41.96495502 -0.01996 49.10551933 -0.01971961 56.24611527 -0.01462913 C66.86429102 -0.00707998 77.48244117 -0.01092341 88.10061674 -0.01704574 C107.06234765 -0.02759143 126.02406511 -0.02665877 144.98579731 -0.02088792 C161.57987592 -0.01586227 178.17394959 -0.01454084 194.7680288 -0.0169332 C195.86757369 -0.01708597 196.96711859 -0.01723874 198.09998303 -0.01739614 C202.56309518 -0.01801879 207.02620733 -0.01865559 211.48931947 -0.01931567 C253.38147784 -0.02543762 295.27362763 -0.01988056 337.16578467 -0.00912188 C374.40498882 0.00036911 411.6441793 -0.00047891 448.88338333 -0.01004386 C490.69606256 -0.02074754 532.50873419 -0.02500284 574.32141459 -0.01881933 C578.77683506 -0.01817787 583.23225554 -0.01755219 587.68767601 -0.0169332 C588.78476045 -0.01677505 589.8818449 -0.01661689 591.01217432 -0.01645395 C607.5973328 -0.01417663 624.18248579 -0.01684398 640.76764351 -0.02189231 C659.62181227 -0.02760259 678.47596543 -0.02619881 697.33013224 -0.01533082 C707.88905171 -0.00944559 718.44793744 -0.00909309 729.00685606 -0.01662317 C736.05261886 -0.02109473 743.0983545 -0.0183408 750.14411326 -0.00961363 C754.16333996 -0.00483867 758.18249943 -0.00326534 762.2017241 -0.0104256 C765.85567614 -0.01686898 769.50950108 -0.01416641 773.16344379 -0.00406428 C775.10173214 -0.00108912 777.0400279 -0.00795079 778.97830507 -0.01517284 C780.70380891 -0.00766228 780.70380891 -0.00766228 782.46417141 0 C783.45290575 0.00013552 784.4416401 0.00027104 785.46033609 0.00041066 C788.64371803 0.28151228 791.30957152 1.13579923 794.29476029 2.25069833 C794.29476029 3.24069833 794.29476029 4.23069833 794.29476029 5.25069833 C795.28476029 5.58069833 796.27476029 5.91069833 797.29476029 6.25069833 C797.29476029 8.56069833 797.29476029 10.87069833 797.29476029 13.25069833 C795.80976029 13.74569833 795.80976029 13.74569833 794.29476029 14.25069833 C794.29476029 15.90069833 794.29476029 17.55069833 794.29476029 19.25069833 C793.63476029 19.25069833 792.97476029 19.25069833 792.29476029 19.25069833 C791.96476029 20.24069833 791.63476029 21.23069833 791.29476029 22.25069833 C790.63476029 22.25069833 789.97476029 22.25069833 789.29476029 22.25069833 C789.29476029 22.91069833 789.29476029 23.57069833 789.29476029 24.25069833 C788.63476029 24.25069833 787.97476029 24.25069833 787.29476029 24.25069833 C786.96476029 25.24069833 786.63476029 26.23069833 786.29476029 27.25069833 C785.63476029 27.25069833 784.97476029 27.25069833 784.29476029 27.25069833 C784.29476029 27.91069833 784.29476029 28.57069833 784.29476029 29.25069833 C783.63476029 29.25069833 782.97476029 29.25069833 782.29476029 29.25069833 C781.96476029 30.24069833 781.63476029 31.23069833 781.29476029 32.25069833 C780.63476029 32.25069833 779.97476029 32.25069833 779.29476029 32.25069833 C779.29476029 32.91069833 779.29476029 33.57069833 779.29476029 34.25069833 C778.63476029 34.25069833 777.97476029 34.25069833 777.29476029 34.25069833 C777.29476029 35.24069833 777.29476029 36.23069833 777.29476029 37.25069833 C776.30476029 37.25069833 775.31476029 37.25069833 774.29476029 37.25069833 C774.29476029 37.91069833 774.29476029 38.57069833 774.29476029 39.25069833 C773.63476029 39.25069833 772.97476029 39.25069833 772.29476029 39.25069833 C772.29476029 40.24069833 772.29476029 41.23069833 772.29476029 42.25069833 C771.30476029 42.25069833 770.31476029 42.25069833 769.29476029 42.25069833 C769.29476029 42.91069833 769.29476029 43.57069833 769.29476029 44.25069833 C768.63476029 44.25069833 767.97476029 44.25069833 767.29476029 44.25069833 C767.29476029 45.24069833 767.29476029 46.23069833 767.29476029 47.25069833 C766.30476029 47.25069833 765.31476029 47.25069833 764.29476029 47.25069833 C764.29476029 47.91069833 764.29476029 48.57069833 764.29476029 49.25069833 C763.63476029 49.25069833 762.97476029 49.25069833 762.29476029 49.25069833 C762.20194779 50.08601083 762.20194779 50.08601083 762.10726029 50.93819833 C760.94712319 54.24012699 758.83916234 55.87977823 756.29476029 58.25069833 C755.46976029 59.07569833 754.64476029 59.90069833 753.79476029 60.75069833 C737.96142695 76.58403166 722.12809362 92.41736499 706.29476029 108.25069833 C705.40788529 109.17882333 704.52101029 110.10694833 703.60726029 111.06319833 C701.29476029 113.25069833 701.29476029 113.25069833 699.29476029 113.25069833 C699.29476029 113.91069833 699.29476029 114.57069833 699.29476029 115.25069833 C698.63476029 115.25069833 697.97476029 115.25069833 697.29476029 115.25069833 C696.96476029 116.24069833 696.63476029 117.23069833 696.29476029 118.25069833 C695.63476029 118.25069833 694.97476029 118.25069833 694.29476029 118.25069833 C693.89837357 119.1556202 693.89837357 119.1556202 693.49397904 120.07882333 C692.23720955 122.35492703 691.14035866 123.41888266 689.10726029 125.00069833 C685.65127162 127.83877634 682.81447357 130.96918228 679.91976029 134.36788583 C677.82985282 136.78936515 675.58575963 139.01998844 673.29476029 141.25069833 C672.46976029 142.07569833 671.64476029 142.90069833 670.79476029 143.75069833 C657.04476029 157.50069833 657.04476029 157.50069833 643.29476029 171.25069833 C642.42851029 172.15819833 641.56226029 173.06569833 640.66976029 174.00069833 C638.29476029 176.25069833 638.29476029 176.25069833 635.29476029 177.25069833 C634.96476029 178.24069833 634.63476029 179.23069833 634.29476029 180.25069833 C633.63476029 180.25069833 632.97476029 180.25069833 632.29476029 180.25069833 C632.29476029 180.91069833 632.29476029 181.57069833 632.29476029 182.25069833 C631.63476029 182.25069833 630.97476029 182.25069833 630.29476029 182.25069833 C630.29476029 182.91069833 630.29476029 183.57069833 630.29476029 184.25069833 C629.00960404 185.47726083 629.00960404 185.47726083 627.23226029 186.87569833 C623.74024739 189.76101807 620.85518412 192.92092201 617.92366654 196.36397958 C615.83254952 198.78606476 613.58739716 201.02002462 611.29476029 203.25069833 C610.57288529 204.01382333 609.85101029 204.77694833 609.10726029 205.56319833 C607.29476029 207.25069833 607.29476029 207.25069833 605.29476029 207.25069833 C605.29476029 207.91069833 605.29476029 208.57069833 605.29476029 209.25069833 C603.91976029 210.87569833 603.91976029 210.87569833 602.29476029 212.25069833 C601.63476029 212.25069833 600.97476029 212.25069833 600.29476029 212.25069833 C600.29476029 212.91069833 600.29476029 213.57069833 600.29476029 214.25069833 C598.91976029 215.87569833 598.91976029 215.87569833 597.29476029 217.25069833 C596.63476029 217.25069833 595.97476029 217.25069833 595.29476029 217.25069833 C595.29476029 217.91069833 595.29476029 218.57069833 595.29476029 219.25069833 C593.91976029 220.87569833 593.91976029 220.87569833 592.29476029 222.25069833 C591.63476029 222.25069833 590.97476029 222.25069833 590.29476029 222.25069833 C590.29476029 222.91069833 590.29476029 223.57069833 590.29476029 224.25069833 C589.00960404 225.47726083 589.00960404 225.47726083 587.23226029 226.87569833 C583.66700932 229.80455561 580.78349648 233.04372052 577.87288529 236.61397958 C576.29476029 238.25069833 576.29476029 238.25069833 573.29476029 239.25069833 C572.96476029 240.24069833 572.63476029 241.23069833 572.29476029 242.25069833 C571.63476029 242.25069833 570.97476029 242.25069833 570.29476029 242.25069833 C570.29476029 242.91069833 570.29476029 243.57069833 570.29476029 244.25069833 C569.63476029 244.25069833 568.97476029 244.25069833 568.29476029 244.25069833 C567.96476029 245.24069833 567.63476029 246.23069833 567.29476029 247.25069833 C566.63476029 247.25069833 565.97476029 247.25069833 565.29476029 247.25069833 C565.03050247 247.85397958 564.76624466 248.45726083 564.49397904 249.07882333 C563.23720955 251.35492703 562.14035866 252.41888266 560.10726029 254.00069833 C556.65127162 256.83877634 553.81447357 259.96918228 550.91976029 263.36788583 C548.82985282 265.78936515 546.58575963 268.01998844 544.29476029 270.25069833 C543.46976029 271.07569833 542.64476029 271.90069833 541.79476029 272.75069833 C534.29476029 280.25069833 526.79476029 287.75069833 519.29476029 295.25069833 C518.42851029 296.15819833 517.56226029 297.06569833 516.66976029 298.00069833 C514.29476029 300.25069833 514.29476029 300.25069833 511.29476029 301.25069833 C510.96476029 302.24069833 510.63476029 303.23069833 510.29476029 304.25069833 C509.63476029 304.25069833 508.97476029 304.25069833 508.29476029 304.25069833 C508.29476029 304.91069833 508.29476029 305.57069833 508.29476029 306.25069833 C507.63476029 306.25069833 506.97476029 306.25069833 506.29476029 306.25069833 C505.96476029 307.24069833 505.63476029 308.23069833 505.29476029 309.25069833 C504.63476029 309.25069833 503.97476029 309.25069833 503.29476029 309.25069833 C503.03050247 309.85397958 502.76624466 310.45726083 502.49397904 311.07882333 C501.23720955 313.35492703 500.14035866 314.41888266 498.10726029 316.00069833 C494.65270012 318.83760325 491.81664659 321.96618421 488.92366654 325.36397958 C486.83254952 327.78606476 484.58739716 330.02002462 482.29476029 332.25069833 C481.21194779 333.39538583 481.21194779 333.39538583 480.10726029 334.56319833 C478.29476029 336.25069833 478.29476029 336.25069833 476.29476029 336.25069833 C476.29476029 336.91069833 476.29476029 337.57069833 476.29476029 338.25069833 C474.91976029 339.87569833 474.91976029 339.87569833 473.29476029 341.25069833 C472.63476029 341.25069833 471.97476029 341.25069833 471.29476029 341.25069833 C471.29476029 341.91069833 471.29476029 342.57069833 471.29476029 343.25069833 C469.91976029 344.87569833 469.91976029 344.87569833 468.29476029 346.25069833 C467.63476029 346.25069833 466.97476029 346.25069833 466.29476029 346.25069833 C466.29476029 346.91069833 466.29476029 347.57069833 466.29476029 348.25069833 C464.97476029 348.58069833 463.65476029 348.91069833 462.29476029 349.25069833 C462.29476029 350.24069833 462.29476029 351.23069833 462.29476029 352.25069833 C461.30476029 352.25069833 460.31476029 352.25069833 459.29476029 352.25069833 C459.29476029 352.91069833 459.29476029 353.57069833 459.29476029 354.25069833 C458.63476029 354.25069833 457.97476029 354.25069833 457.29476029 354.25069833 C457.29476029 355.24069833 457.29476029 356.23069833 457.29476029 357.25069833 C456.30476029 357.25069833 455.31476029 357.25069833 454.29476029 357.25069833 C454.29476029 357.91069833 454.29476029 358.57069833 454.29476029 359.25069833 C453.63476029 359.25069833 452.97476029 359.25069833 452.29476029 359.25069833 C452.29476029 360.24069833 452.29476029 361.23069833 452.29476029 362.25069833 C451.30476029 362.25069833 450.31476029 362.25069833 449.29476029 362.25069833 C449.29476029 362.91069833 449.29476029 363.57069833 449.29476029 364.25069833 C448.63476029 364.25069833 447.97476029 364.25069833 447.29476029 364.25069833 C447.29476029 365.24069833 447.29476029 366.23069833 447.29476029 367.25069833 C446.30476029 367.25069833 445.31476029 367.25069833 444.29476029 367.25069833 C444.29476029 367.91069833 444.29476029 368.57069833 444.29476029 369.25069833 C443.63476029 369.25069833 442.97476029 369.25069833 442.29476029 369.25069833 C442.29476029 369.91069833 442.29476029 370.57069833 442.29476029 371.25069833 C441.30476029 371.25069833 440.31476029 371.25069833 439.29476029 371.25069833 C439.29476029 372.24069833 439.29476029 373.23069833 439.29476029 374.25069833 C438.63476029 374.25069833 437.97476029 374.25069833 437.29476029 374.25069833 C437.29476029 374.91069833 437.29476029 375.57069833 437.29476029 376.25069833 C436.63476029 376.25069833 435.97476029 376.25069833 435.29476029 376.25069833 C435.29476029 377.24069833 435.29476029 378.23069833 435.29476029 379.25069833 C434.30476029 379.25069833 433.31476029 379.25069833 432.29476029 379.25069833 C432.29476029 379.91069833 432.29476029 380.57069833 432.29476029 381.25069833 C431.63476029 381.25069833 430.97476029 381.25069833 430.29476029 381.25069833 C430.29476029 382.24069833 430.29476029 383.23069833 430.29476029 384.25069833 C429.30476029 384.25069833 428.31476029 384.25069833 427.29476029 384.25069833 C427.15038529 385.03444833 427.00601029 385.81819833 426.85726029 386.62569833 C426.29476029 389.25069833 426.29476029 389.25069833 425.29476029 391.25069833 C424.30476029 391.25069833 423.31476029 391.25069833 422.29476029 391.25069833 C422.29476029 396.53069833 422.29476029 401.81069833 422.29476029 407.25069833 C423.28476029 407.25069833 424.27476029 407.25069833 425.29476029 407.25069833 C425.74851029 408.36444833 426.20226029 409.47819833 426.66976029 410.62569833 C428.01942015 414.21268841 428.01942015 414.21268841 430.29476029 416.25069833 C430.29476029 417.24069833 430.29476029 418.23069833 430.29476029 419.25069833 C430.95476029 419.25069833 431.61476029 419.25069833 432.29476029 419.25069833 C433.91976029 420.50069833 433.91976029 420.50069833 435.29476029 422.25069833 C435.29476029 423.57069833 435.29476029 424.89069833 435.29476029 426.25069833 C435.95476029 426.25069833 436.61476029 426.25069833 437.29476029 426.25069833 C437.29476029 427.24069833 437.29476029 428.23069833 437.29476029 429.25069833 C437.95476029 429.25069833 438.61476029 429.25069833 439.29476029 429.25069833 C439.29476029 430.24069833 439.29476029 431.23069833 439.29476029 432.25069833 C440.28476029 432.58069833 441.27476029 432.91069833 442.29476029 433.25069833 C442.29476029 434.24069833 442.29476029 435.23069833 442.29476029 436.25069833 C442.95476029 436.25069833 443.61476029 436.25069833 444.29476029 436.25069833 C444.29476029 437.24069833 444.29476029 438.23069833 444.29476029 439.25069833 C445.28476029 439.58069833 446.27476029 439.91069833 447.29476029 440.25069833 C447.29476029 441.57069833 447.29476029 442.89069833 447.29476029 444.25069833 C447.95476029 444.25069833 448.61476029 444.25069833 449.29476029 444.25069833 C449.29476029 444.91069833 449.29476029 445.57069833 449.29476029 446.25069833 C450.28476029 446.25069833 451.27476029 446.25069833 452.29476029 446.25069833 C454.05938712 449.33879528 454.29476029 450.48381968 454.29476029 454.25069833 C455.28476029 454.25069833 456.27476029 454.25069833 457.29476029 454.25069833 C457.29476029 454.91069833 457.29476029 455.57069833 457.29476029 456.25069833 C457.95476029 456.25069833 458.61476029 456.25069833 459.29476029 456.25069833 C459.29476029 457.90069833 459.29476029 459.55069833 459.29476029 461.25069833 C460.28476029 461.25069833 461.27476029 461.25069833 462.29476029 461.25069833 C462.29476029 462.24069833 462.29476029 463.23069833 462.29476029 464.25069833 C462.95476029 464.25069833 463.61476029 464.25069833 464.29476029 464.25069833 C464.29476029 465.24069833 464.29476029 466.23069833 464.29476029 467.25069833 C464.95476029 467.25069833 465.61476029 467.25069833 466.29476029 467.25069833 C466.62476029 468.57069833 466.95476029 469.89069833 467.29476029 471.25069833 C467.95476029 471.25069833 468.61476029 471.25069833 469.29476029 471.25069833 C469.29476029 471.91069833 469.29476029 472.57069833 469.29476029 473.25069833 C470.28476029 473.58069833 471.27476029 473.91069833 472.29476029 474.25069833 C472.29476029 475.57069833 472.29476029 476.89069833 472.29476029 478.25069833 C472.95476029 478.25069833 473.61476029 478.25069833 474.29476029 478.25069833 C474.29476029 479.24069833 474.29476029 480.23069833 474.29476029 481.25069833 C475.28476029 481.58069833 476.27476029 481.91069833 477.29476029 482.25069833 C477.29476029 482.91069833 477.29476029 483.57069833 477.29476029 484.25069833 C477.95476029 484.25069833 478.61476029 484.25069833 479.29476029 484.25069833 C479.29476029 485.57069833 479.29476029 486.89069833 479.29476029 488.25069833 C480.28476029 488.58069833 481.27476029 488.91069833 482.29476029 489.25069833 C482.29476029 489.91069833 482.29476029 490.57069833 482.29476029 491.25069833 C482.95476029 491.25069833 483.61476029 491.25069833 484.29476029 491.25069833 C484.29476029 492.90069833 484.29476029 494.55069833 484.29476029 496.25069833 C485.28476029 496.25069833 486.27476029 496.25069833 487.29476029 496.25069833 C487.95476029 497.90069833 488.61476029 499.55069833 489.29476029 501.25069833 C489.95476029 501.25069833 490.61476029 501.25069833 491.29476029 501.25069833 C491.62476029 502.90069833 491.95476029 504.55069833 492.29476029 506.25069833 C492.95476029 506.25069833 493.61476029 506.25069833 494.29476029 506.25069833 C495.91976029 507.50069833 495.91976029 507.50069833 497.29476029 509.25069833 C497.29476029 510.57069833 497.29476029 511.89069833 497.29476029 513.25069833 C497.95476029 513.25069833 498.61476029 513.25069833 499.29476029 513.25069833 C499.29476029 514.24069833 499.29476029 515.23069833 499.29476029 516.25069833 C500.28476029 516.25069833 501.27476029 516.25069833 502.29476029 516.25069833 C503.75538879 518.89808749 504.29476029 520.14518167 504.29476029 523.25069833 C504.95476029 523.25069833 505.61476029 523.25069833 506.29476029 523.25069833 C506.29476029 524.24069833 506.29476029 525.23069833 506.29476029 526.25069833 C507.28476029 526.25069833 508.27476029 526.25069833 509.29476029 526.25069833 C509.29476029 527.90069833 509.29476029 529.55069833 509.29476029 531.25069833 C509.95476029 531.25069833 510.61476029 531.25069833 511.29476029 531.25069833 C511.29476029 531.91069833 511.29476029 532.57069833 511.29476029 533.25069833 C512.28476029 533.25069833 513.27476029 533.25069833 514.29476029 533.25069833 C515.75538879 535.89808749 516.29476029 537.14518167 516.29476029 540.25069833 C517.28476029 540.58069833 518.27476029 540.91069833 519.29476029 541.25069833 C519.29476029 541.91069833 519.29476029 542.57069833 519.29476029 543.25069833 C519.95476029 543.25069833 520.61476029 543.25069833 521.29476029 543.25069833 C521.29476029 544.90069833 521.29476029 546.55069833 521.29476029 548.25069833 C522.28476029 548.25069833 523.27476029 548.25069833 524.29476029 548.25069833 C524.29476029 548.91069833 524.29476029 549.57069833 524.29476029 550.25069833 C524.95476029 550.25069833 525.61476029 550.25069833 526.29476029 550.25069833 C526.29476029 551.24069833 526.29476029 552.23069833 526.29476029 553.25069833 C526.95476029 553.25069833 527.61476029 553.25069833 528.29476029 553.25069833 C528.62476029 554.90069833 528.95476029 556.55069833 529.29476029 558.25069833 C529.95476029 558.25069833 530.61476029 558.25069833 531.29476029 558.25069833 C531.29476029 558.91069833 531.29476029 559.57069833 531.29476029 560.25069833 C532.28476029 560.58069833 533.27476029 560.91069833 534.29476029 561.25069833 C535.94296224 563.85312247 536.29476029 565.11318612 536.29476029 568.25069833 C537.28476029 568.25069833 538.27476029 568.25069833 539.29476029 568.25069833 C541.29476029 571.25069833 541.29476029 571.25069833 541.29476029 575.25069833 C542.28476029 575.25069833 543.27476029 575.25069833 544.29476029 575.25069833 C544.29476029 576.24069833 544.29476029 577.23069833 544.29476029 578.25069833 C544.95476029 578.25069833 545.61476029 578.25069833 546.29476029 578.25069833 C546.29476029 579.24069833 546.29476029 580.23069833 546.29476029 581.25069833 C546.95476029 581.25069833 547.61476029 581.25069833 548.29476029 581.25069833 C548.62476029 582.57069833 548.95476029 583.89069833 549.29476029 585.25069833 C549.95476029 585.25069833 550.61476029 585.25069833 551.29476029 585.25069833 C551.29476029 586.24069833 551.29476029 587.23069833 551.29476029 588.25069833 C552.28476029 588.58069833 553.27476029 588.91069833 554.29476029 589.25069833 C554.29476029 590.57069833 554.29476029 591.89069833 554.29476029 593.25069833 C554.95476029 593.25069833 555.61476029 593.25069833 556.29476029 593.25069833 C556.29476029 593.91069833 556.29476029 594.57069833 556.29476029 595.25069833 C557.28476029 595.58069833 558.27476029 595.91069833 559.29476029 596.25069833 C559.96142695 598.25069833 560.62809362 600.25069833 561.29476029 602.25069833 C562.28476029 602.58069833 563.27476029 602.91069833 564.29476029 603.25069833 C566.29476029 606.25069833 566.29476029 606.25069833 566.29476029 610.25069833 C566.95476029 610.25069833 567.61476029 610.25069833 568.29476029 610.25069833 C568.29476029 610.91069833 568.29476029 611.57069833 568.29476029 612.25069833 C569.28476029 612.58069833 570.27476029 612.91069833 571.29476029 613.25069833 C571.29476029 614.57069833 571.29476029 615.89069833 571.29476029 617.25069833 C571.95476029 617.25069833 572.61476029 617.25069833 573.29476029 617.25069833 C573.29476029 618.24069833 573.29476029 619.23069833 573.29476029 620.25069833 C574.28476029 620.25069833 575.27476029 620.25069833 576.29476029 620.25069833 C576.29476029 621.24069833 576.29476029 622.23069833 576.29476029 623.25069833 C576.95476029 623.25069833 577.61476029 623.25069833 578.29476029 623.25069833 C578.29476029 624.57069833 578.29476029 625.89069833 578.29476029 627.25069833 C579.28476029 627.58069833 580.27476029 627.91069833 581.29476029 628.25069833 C581.29476029 628.91069833 581.29476029 629.57069833 581.29476029 630.25069833 C581.95476029 630.25069833 582.61476029 630.25069833 583.29476029 630.25069833 C583.29476029 631.90069833 583.29476029 633.55069833 583.29476029 635.25069833 C584.28476029 635.25069833 585.27476029 635.25069833 586.29476029 635.25069833 C586.29476029 635.91069833 586.29476029 636.57069833 586.29476029 637.25069833 C586.95476029 637.25069833 587.61476029 637.25069833 588.29476029 637.25069833 C588.29476029 638.24069833 588.29476029 639.23069833 588.29476029 640.25069833 C588.95476029 640.25069833 589.61476029 640.25069833 590.29476029 640.25069833 C590.62476029 641.90069833 590.95476029 643.55069833 591.29476029 645.25069833 C591.95476029 645.25069833 592.61476029 645.25069833 593.29476029 645.25069833 C593.29476029 645.91069833 593.29476029 646.57069833 593.29476029 647.25069833 C594.28476029 647.58069833 595.27476029 647.91069833 596.29476029 648.25069833 C596.29476029 649.57069833 596.29476029 650.89069833 596.29476029 652.25069833 C596.95476029 652.25069833 597.61476029 652.25069833 598.29476029 652.25069833 C598.29476029 653.24069833 598.29476029 654.23069833 598.29476029 655.25069833 C599.28476029 655.25069833 600.27476029 655.25069833 601.29476029 655.25069833 C601.29476029 656.24069833 601.29476029 657.23069833 601.29476029 658.25069833 C601.95476029 658.25069833 602.61476029 658.25069833 603.29476029 658.25069833 C603.29476029 659.57069833 603.29476029 660.89069833 603.29476029 662.25069833 C603.93413529 662.47757333 604.57351029 662.70444833 605.23226029 662.93819833 C607.29476029 664.25069833 607.29476029 664.25069833 608.04476029 666.87569833 C608.12726029 667.65944833 608.20976029 668.44319833 608.29476029 669.25069833 C609.28476029 669.58069833 610.27476029 669.91069833 611.29476029 670.25069833 C611.29476029 670.91069833 611.29476029 671.57069833 611.29476029 672.25069833 C611.95476029 672.25069833 612.61476029 672.25069833 613.29476029 672.25069833 C613.29476029 673.24069833 613.29476029 674.23069833 613.29476029 675.25069833 C613.95476029 675.25069833 614.61476029 675.25069833 615.29476029 675.25069833 C618.29476029 679.63531371 618.29476029 679.63531371 618.29476029 682.25069833 C619.28476029 682.58069833 620.27476029 682.91069833 621.29476029 683.25069833 C621.29476029 684.57069833 621.29476029 685.89069833 621.29476029 687.25069833 C621.95476029 687.25069833 622.61476029 687.25069833 623.29476029 687.25069833 C623.29476029 687.91069833 623.29476029 688.57069833 623.29476029 689.25069833 C624.28476029 689.58069833 625.27476029 689.91069833 626.29476029 690.25069833 C627.94296224 692.85312247 628.29476029 694.11318612 628.29476029 697.25069833 C628.95476029 697.25069833 629.61476029 697.25069833 630.29476029 697.25069833 C630.29476029 697.91069833 630.29476029 698.57069833 630.29476029 699.25069833 C631.28476029 699.58069833 632.27476029 699.91069833 633.29476029 700.25069833 C633.29476029 701.57069833 633.29476029 702.89069833 633.29476029 704.25069833 C633.95476029 704.25069833 634.61476029 704.25069833 635.29476029 704.25069833 C635.29476029 705.24069833 635.29476029 706.23069833 635.29476029 707.25069833 C636.28476029 707.25069833 637.27476029 707.25069833 638.29476029 707.25069833 C638.29476029 708.24069833 638.29476029 709.23069833 638.29476029 710.25069833 C638.95476029 710.25069833 639.61476029 710.25069833 640.29476029 710.25069833 C640.29476029 711.57069833 640.29476029 712.89069833 640.29476029 714.25069833 C641.28476029 714.25069833 642.27476029 714.25069833 643.29476029 714.25069833 C643.29476029 715.24069833 643.29476029 716.23069833 643.29476029 717.25069833 C643.95476029 717.25069833 644.61476029 717.25069833 645.29476029 717.25069833 C645.29476029 718.90069833 645.29476029 720.55069833 645.29476029 722.25069833 C646.28476029 722.25069833 647.27476029 722.25069833 648.29476029 722.25069833 C648.29476029 722.91069833 648.29476029 723.57069833 648.29476029 724.25069833 C648.95476029 724.25069833 649.61476029 724.25069833 650.29476029 724.25069833 C650.29476029 725.24069833 650.29476029 726.23069833 650.29476029 727.25069833 C650.95476029 727.25069833 651.61476029 727.25069833 652.29476029 727.25069833 C652.62476029 728.57069833 652.95476029 729.89069833 653.29476029 731.25069833 C653.95476029 731.25069833 654.61476029 731.25069833 655.29476029 731.25069833 C655.29476029 732.24069833 655.29476029 733.23069833 655.29476029 734.25069833 C656.28476029 734.58069833 657.27476029 734.91069833 658.29476029 735.25069833 C658.29476029 736.57069833 658.29476029 737.89069833 658.29476029 739.25069833 C658.95476029 739.25069833 659.61476029 739.25069833 660.29476029 739.25069833 C660.29476029 739.91069833 660.29476029 740.57069833 660.29476029 741.25069833 C661.28476029 741.58069833 662.27476029 741.91069833 663.29476029 742.25069833 C665.29476029 745.25069833 665.29476029 745.25069833 665.29476029 749.25069833 C666.28476029 749.25069833 667.27476029 749.25069833 668.29476029 749.25069833 C670.29476029 752.25069833 670.29476029 752.25069833 670.29476029 756.25069833 C671.28476029 756.58069833 672.27476029 756.91069833 673.29476029 757.25069833 C673.29476029 757.91069833 673.29476029 758.57069833 673.29476029 759.25069833 C673.95476029 759.25069833 674.61476029 759.25069833 675.29476029 759.25069833 C675.29476029 760.24069833 675.29476029 761.23069833 675.29476029 762.25069833 C675.95476029 762.25069833 676.61476029 762.25069833 677.29476029 762.25069833 C677.62476029 763.57069833 677.95476029 764.89069833 678.29476029 766.25069833 C678.95476029 766.25069833 679.61476029 766.25069833 680.29476029 766.25069833 C680.29476029 767.24069833 680.29476029 768.23069833 680.29476029 769.25069833 C681.28476029 769.58069833 682.27476029 769.91069833 683.29476029 770.25069833 C683.29476029 771.57069833 683.29476029 772.89069833 683.29476029 774.25069833 C683.95476029 774.25069833 684.61476029 774.25069833 685.29476029 774.25069833 C685.29476029 774.91069833 685.29476029 775.57069833 685.29476029 776.25069833 C686.28476029 776.58069833 687.27476029 776.91069833 688.29476029 777.25069833 C690.29476029 780.25069833 690.29476029 780.25069833 690.29476029 784.25069833 C691.28476029 784.25069833 692.27476029 784.25069833 693.29476029 784.25069833 C695.29476029 787.25069833 695.29476029 787.25069833 695.29476029 791.25069833 C695.95476029 791.25069833 696.61476029 791.25069833 697.29476029 791.25069833 C697.29476029 791.91069833 697.29476029 792.57069833 697.29476029 793.25069833 C698.28476029 793.58069833 699.27476029 793.91069833 700.29476029 794.25069833 C702.29476029 797.25069833 702.29476029 797.25069833 702.29476029 801.25069833 C703.28476029 801.25069833 704.27476029 801.25069833 705.29476029 801.25069833 C707.29476029 804.25069833 707.29476029 804.25069833 707.29476029 808.25069833 C708.28476029 808.25069833 709.27476029 808.25069833 710.29476029 808.25069833 C710.29476029 809.24069833 710.29476029 810.23069833 710.29476029 811.25069833 C710.95476029 811.25069833 711.61476029 811.25069833 712.29476029 811.25069833 C712.29476029 812.24069833 712.29476029 813.23069833 712.29476029 814.25069833 C712.95476029 814.25069833 713.61476029 814.25069833 714.29476029 814.25069833 C714.62476029 815.57069833 714.95476029 816.89069833 715.29476029 818.25069833 C715.95476029 818.25069833 716.61476029 818.25069833 717.29476029 818.25069833 C717.29476029 819.24069833 717.29476029 820.23069833 717.29476029 821.25069833 C718.28476029 821.58069833 719.27476029 821.91069833 720.29476029 822.25069833 C720.29476029 823.57069833 720.29476029 824.89069833 720.29476029 826.25069833 C720.95476029 826.25069833 721.61476029 826.25069833 722.29476029 826.25069833 C722.29476029 826.91069833 722.29476029 827.57069833 722.29476029 828.25069833 C723.28476029 828.58069833 724.27476029 828.91069833 725.29476029 829.25069833 C727.29476029 832.25069833 727.29476029 832.25069833 727.29476029 836.25069833 C728.28476029 836.25069833 729.27476029 836.25069833 730.29476029 836.25069833 C730.29476029 836.91069833 730.29476029 837.57069833 730.29476029 838.25069833 C730.95476029 838.25069833 731.61476029 838.25069833 732.29476029 838.25069833 C732.29476029 839.90069833 732.29476029 841.55069833 732.29476029 843.25069833 C733.28476029 843.25069833 734.27476029 843.25069833 735.29476029 843.25069833 C735.29476029 844.24069833 735.29476029 845.23069833 735.29476029 846.25069833 C735.95476029 846.25069833 736.61476029 846.25069833 737.29476029 846.25069833 C737.29476029 846.91069833 737.29476029 847.57069833 737.29476029 848.25069833 C737.95476029 848.25069833 738.61476029 848.25069833 739.29476029 848.25069833 C739.62476029 849.90069833 739.95476029 851.55069833 740.29476029 853.25069833 C740.95476029 853.25069833 741.61476029 853.25069833 742.29476029 853.25069833 C742.29476029 853.91069833 742.29476029 854.57069833 742.29476029 855.25069833 C742.95476029 855.25069833 743.61476029 855.25069833 744.29476029 855.25069833 C744.62476029 856.90069833 744.95476029 858.55069833 745.29476029 860.25069833 C745.95476029 860.25069833 746.61476029 860.25069833 747.29476029 860.25069833 C747.29476029 861.24069833 747.29476029 862.23069833 747.29476029 863.25069833 C748.28476029 863.58069833 749.27476029 863.91069833 750.29476029 864.25069833 C752.29476029 867.25069833 752.29476029 867.25069833 752.29476029 870.25069833 C753.28476029 870.58069833 754.27476029 870.91069833 755.29476029 871.25069833 C755.29476029 871.91069833 755.29476029 872.57069833 755.29476029 873.25069833 C755.95476029 873.25069833 756.61476029 873.25069833 757.29476029 873.25069833 C757.29476029 874.90069833 757.29476029 876.55069833 757.29476029 878.25069833 C757.95476029 878.25069833 758.61476029 878.25069833 759.29476029 878.25069833 C759.29476029 878.91069833 759.29476029 879.57069833 759.29476029 880.25069833 C760.28476029 880.58069833 761.27476029 880.91069833 762.29476029 881.25069833 C764.29476029 884.25069833 764.29476029 884.25069833 764.29476029 888.25069833 C765.28476029 888.25069833 766.27476029 888.25069833 767.29476029 888.25069833 C769.29476029 891.25069833 769.29476029 891.25069833 769.29476029 895.25069833 C770.28476029 895.25069833 771.27476029 895.25069833 772.29476029 895.25069833 C772.29476029 896.24069833 772.29476029 897.23069833 772.29476029 898.25069833 C772.95476029 898.25069833 773.61476029 898.25069833 774.29476029 898.25069833 C774.29476029 898.91069833 774.29476029 899.57069833 774.29476029 900.25069833 C774.95476029 900.25069833 775.61476029 900.25069833 776.29476029 900.25069833 C776.62476029 901.90069833 776.95476029 903.55069833 777.29476029 905.25069833 C777.95476029 905.25069833 778.61476029 905.25069833 779.29476029 905.25069833 C779.29476029 906.24069833 779.29476029 907.23069833 779.29476029 908.25069833 C780.28476029 908.25069833 781.27476029 908.25069833 782.29476029 908.25069833 C782.29476029 909.90069833 782.29476029 911.55069833 782.29476029 913.25069833 C782.95476029 913.25069833 783.61476029 913.25069833 784.29476029 913.25069833 C784.29476029 913.91069833 784.29476029 914.57069833 784.29476029 915.25069833 C785.28476029 915.58069833 786.27476029 915.91069833 787.29476029 916.25069833 C787.29476029 916.91069833 787.29476029 917.57069833 787.29476029 918.25069833 C787.95476029 918.25069833 788.61476029 918.25069833 789.29476029 918.25069833 C789.29476029 919.57069833 789.29476029 920.89069833 789.29476029 922.25069833 C790.28476029 922.58069833 791.27476029 922.91069833 792.29476029 923.25069833 C792.29476029 923.91069833 792.29476029 924.57069833 792.29476029 925.25069833 C792.95476029 925.25069833 793.61476029 925.25069833 794.29476029 925.25069833 C794.29476029 926.24069833 794.29476029 927.23069833 794.29476029 928.25069833 C794.95476029 928.25069833 795.61476029 928.25069833 796.29476029 928.25069833 C798.72636634 931.61753747 799.29476029 932.98420197 799.29476029 937.25069833 C800.28476029 937.58069833 801.27476029 937.91069833 802.29476029 938.25069833 C802.29476029 941.55069833 802.29476029 944.85069833 802.29476029 948.25069833 C801.30476029 948.58069833 800.31476029 948.91069833 799.29476029 949.25069833 C799.29476029 950.24069833 799.29476029 951.23069833 799.29476029 952.25069833 C795.19558799 953.78265561 791.80316675 954.50096912 787.43326193 954.50254732 C786.27601518 954.50781059 785.11876843 954.51307385 783.92645359 954.5184966 C782.02986133 954.51190188 782.02986133 954.51190188 780.09495407 954.50517392 C778.72713812 954.50756431 777.35932347 954.51082985 775.99151146 954.51489052 C772.22162333 954.52352713 768.45183451 954.51967721 764.68194479 954.5138348 C760.58483062 954.50967184 756.48773481 954.51706226 752.39062506 954.52298731 C745.20618281 954.53176223 738.02176905 954.53305684 730.83732277 954.52948403 C720.15395845 954.5241852 709.4706218 954.53026403 698.78726049 954.53856697 C678.59912101 954.55382496 658.41099406 954.55551022 638.22285002 954.55304394 C622.63713331 954.55121293 607.0514207 954.55296684 591.4657045 954.55726838 C589.22836273 954.55787077 586.99102096 954.55847197 584.75367919 954.55907198 C581.38244166 954.55997921 578.01120414 954.56088788 574.63996661 954.56180434 C543.2875955 954.5702365 511.93522594 954.5745677 480.58285385 954.57039762 C479.40039591 954.57024124 478.21793797 954.57008486 476.99964797 954.56992375 C471.00615783 954.56911794 465.01266769 954.56827217 459.01917756 954.56741045 C457.2336112 954.56715382 457.2336112 954.56715382 455.4119728 954.566892 C453.00473989 954.56654534 450.59750699 954.56619681 448.19027408 954.56584641 C410.72265211 954.56048762 373.25505366 954.56842304 335.78743607 954.58687997 C293.71582112 954.60758048 251.64422075 954.61832649 209.57260042 954.61430448 C205.08967231 954.61390912 200.60674419 954.61354758 196.12381607 954.6132071 C194.46803553 954.613071 194.46803553 954.613071 192.77880488 954.61293216 C176.09162761 954.61176461 159.40446502 954.61842635 142.71729141 954.62901902 C123.74785902 954.64104796 104.77845904 954.6426566 85.80902618 954.63022885 C75.1856535 954.62358109 64.56235826 954.62527531 53.93899171 954.63881737 C46.85030189 954.64702765 39.76167041 954.64440915 32.67298539 954.6328421 C28.62923415 954.62655157 24.58563461 954.62507204 20.54189181 954.63670544 C16.86567313 954.64718464 13.18973576 954.64394392 9.51353245 954.62960091 C7.56337225 954.62557063 5.61319876 954.63630445 3.66306698 954.64757797 C-6.79820776 954.5820003 -6.79820776 954.5820003 -11.70523971 951.25069833 C-11.70523971 950.59069833 -11.70523971 949.93069833 -11.70523971 949.25069833 C-12.36523971 949.25069833 -13.02523971 949.25069833 -13.70523971 949.25069833 C-13.70523971 948.59069833 -13.70523971 947.93069833 -13.70523971 947.25069833 C-14.69523971 946.92069833 -15.68523971 946.59069833 -16.70523971 946.25069833 C-18.80158164 942.4002555 -18.95574311 939.01557289 -18.95708871 934.68624669 C-18.96001757 934.03617309 -18.96294644 933.38609949 -18.96596406 932.71632669 C-18.97336067 930.53055763 -18.96648359 928.34506691 -18.95971531 926.15929914 C-18.96210443 924.57264872 -18.96536915 922.98599942 -18.96943191 921.3993524 C-18.97808599 917.01720411 -18.97421139 912.63514101 -18.96837618 908.25299131 C-18.96421947 903.49391101 -18.97160008 898.73484665 -18.97752869 893.97577018 C-18.98631041 885.62751915 -18.98759582 877.27929264 -18.98402542 868.93103814 C-18.97873013 856.517094 -18.98480184 844.1031737 -18.99310835 831.68923216 C-19.00837246 808.23121913 -19.01005096 784.77321687 -19.00758532 761.31519992 C-19.00575478 743.20514558 -19.00750725 725.09509479 -19.01180977 706.9850409 C-19.01241216 704.38592429 -19.01301336 701.78680768 -19.01361337 699.18769107 C-19.01452059 695.27138625 -19.01542926 691.35508142 -19.01634572 687.43877659 C-19.02477887 651.01331368 -19.0291271 614.5878527 -19.024939 578.16238904 C-19.02486094 577.47559745 -19.02478289 576.78880586 -19.02470246 576.0812024 C-19.02382964 568.4225236 -19.02290038 560.76384481 -19.02195183 553.10516603 C-19.02182357 552.06794156 -19.02182357 552.06794156 -19.02169271 551.00976306 C-19.02098186 545.26366386 -19.02098186 545.26366386 -19.02065049 542.6205103 C-19.01511391 498.38468261 -19.02265841 454.14887577 -19.04142135 409.91305184 C-19.04614343 398.76635166 -19.05082389 387.61965147 -19.05525821 376.47295117 C-19.05553154 375.78663663 -19.05580486 375.10032208 -19.05608646 374.39321013 C-19.06445538 353.24673734 -19.0691372 332.10026629 -19.06996578 310.95379186 C-19.06999215 310.29006224 -19.07001851 309.62633261 -19.07004568 308.94248997 C-19.07061067 293.71981326 -19.07009853 278.49713669 -19.06884587 263.27446002 C-19.0684505 258.06636385 -19.06808896 252.85826769 -19.06774849 247.65017152 C-19.06765776 246.36774491 -19.06756702 245.08531831 -19.06747354 243.76403029 C-19.06630581 224.37403785 -19.0729692 204.98405805 -19.08356041 185.59406877 C-19.09558761 163.55222813 -19.09720004 141.51041539 -19.08477024 119.46857435 C-19.07812077 107.12332733 -19.07982058 94.77814694 -19.09335875 82.43290519 C-19.10156577 74.19642721 -19.09895483 65.95999945 -19.08738349 57.7235256 C-19.08108966 53.02419814 -19.0796218 48.32500127 -19.09124682 43.62568105 C-19.10171577 39.35460029 -19.09849823 35.08376183 -19.08414229 30.81269437 C-19.08140304 29.27334741 -19.08374072 27.73398136 -19.09164944 26.19465229 C-19.10163462 24.10963839 -19.09320284 22.02547759 -19.08013654 19.94049913 C-19.080157 18.78455355 -19.08017746 17.62860798 -19.08019855 16.43763376 C-18.65610944 12.83311914 -17.49632469 10.38253977 -15.70523971 7.25069833 C-15.04523971 7.25069833 -14.38523971 7.25069833 -13.70523971 7.25069833 C-13.70523971 6.59069833 -13.70523971 5.93069833 -13.70523971 5.25069833 C-13.04523971 5.25069833 -12.38523971 5.25069833 -11.70523971 5.25069833 C-11.37523971 4.26069833 -11.04523971 3.27069833 -10.70523971 2.25069833 C-7.0999754 0.33550787 -4.03983142 0.00055375 0 0 Z M341.29476029 473.25069833 C309.76563603 501.34789424 278.66607789 529.8628476 248.04228634 558.94550352 C244.37989728 562.42291729 240.71430556 565.89693709 237.04671341 569.36886239 C236.31700341 570.05975045 235.5872934 570.75063851 234.83547097 571.46246257 C224.62878231 581.11286943 214.2681237 590.56487448 203.75391763 599.87885827 C185.61771002 615.94516154 167.85628742 632.34011171 150.66976029 649.42257333 C150.0008717 650.08588576 149.33198312 650.74919818 148.64282519 651.43261099 C110.81615835 689.05216168 89.52883802 722.11377723 88.93998963 776.55288693 C88.8930165 805.81741067 90.87376021 836.62541138 97.29476029 865.25069833 C99.1150525 867.07099054 101.63870755 866.37447874 104.06176487 866.3817068 C104.89981486 866.37907979 105.73786486 866.37645278 106.60131031 866.37374616 C107.9301028 866.37547692 107.9301028 866.37547692 109.28573957 866.37724265 C112.29320504 866.37991717 115.30061838 866.37538034 118.30808121 866.37095284 C120.47033978 866.37138838 122.63259831 866.37226295 124.79485655 866.37354201 C130.76702855 866.37579052 136.73918279 866.37176085 142.71135253 866.36676395 C149.14016119 866.36246471 155.56896878 866.3639055 161.99777848 866.36466622 C173.14623943 866.3651918 184.29469446 866.36207628 195.44315392 866.35642838 C207.1397726 866.35051794 218.83638895 866.34666377 230.53300911 866.34557557 C231.25938608 866.34550683 231.98576306 866.34543809 232.73415145 866.34536727 C236.42282603 866.34502895 240.1115006 866.34472756 243.80017518 866.34444039 C269.94916933 866.34233816 296.09816043 866.33559574 322.24715286 866.32613778 C347.65568135 866.31695823 373.064209 866.30987223 398.4727388 866.30562997 C399.25549257 866.30549844 400.03824635 866.30536692 400.84471993 866.3052314 C408.70522186 866.30391292 416.5657238 866.3026371 424.42622575 866.30139255 C440.43997538 866.29885611 456.45372496 866.29603486 472.46747452 866.29304147 C473.20381343 866.29290418 473.94015233 866.29276689 474.69880454 866.29262544 C523.89745775 866.28341972 573.09610917 866.26755319 622.29476029 866.25069833 C622.29476029 862.96594196 621.96636498 862.42065818 620.12679154 859.87179208 C619.65241654 859.20728036 619.17804154 858.54276864 618.68929154 857.8581202 C617.90618607 856.78400887 617.90618607 856.78400887 617.10726029 855.68819833 C616.56843216 854.93731942 616.02960404 854.18644052 615.47444779 853.4128077 C613.75497263 851.02023546 612.02561206 848.63504982 610.29476029 846.25069833 C609.20450405 844.74188172 608.11465232 843.23277272 607.02522904 841.72335458 C605.40639484 839.4812521 603.78680752 837.2397207 602.16438919 835.00021005 C597.88202333 829.08487978 593.66427898 823.12593956 589.46272904 817.15304208 C586.77039227 813.32935103 584.0559174 809.52522856 581.29476029 805.75069833 C577.42182337 800.45554184 573.64402793 795.0956518 569.86604935 789.73263192 C563.67402881 780.94465072 557.44413609 772.18501564 551.10726029 763.50069833 C548.73852083 760.25308133 546.40142389 756.98886999 544.10726029 753.68819833 C540.82976042 748.98051671 537.47234869 744.33337658 534.10726029 739.68819833 C529.22856686 732.95118922 524.40191049 726.18018925 519.6133638 719.37887216 C513.61094974 710.85394981 507.57174567 702.35603841 501.41976029 693.93819833 C497.50977355 688.57773264 493.68753529 683.15735521 489.86653763 677.73336434 C483.67442305 668.94509197 477.44430798 660.18525121 471.10726029 651.50069833 C468.73852083 648.25308133 466.40142389 644.98886999 464.10726029 641.68819833 C460.82976042 636.98051671 457.47234869 632.33337658 454.10726029 627.68819833 C449.22856686 620.95118922 444.40191049 614.18018925 439.6133638 607.37887216 C433.61094974 598.85394981 427.57174567 590.35603841 421.41976029 581.93819833 C417.50977355 576.57773264 413.68753529 571.15735521 409.86653763 565.73336434 C403.67442305 556.94509197 397.44430798 548.18525121 391.10726029 539.50069833 C388.73852083 536.25308133 386.40142389 532.98886999 384.10726029 529.68819833 C380.82976042 524.98051671 377.47234869 520.33337658 374.10726029 515.68819833 C369.73602359 509.65193844 365.39911066 503.59366153 361.10726029 497.50069833 C360.61717484 496.80702157 360.12708939 496.11334481 359.62215286 495.39864755 C357.2176393 491.992955 354.82797091 488.57832675 352.46272904 485.14522958 C351.57344053 483.86786187 350.68411923 482.590517 349.79476029 481.31319833 C349.19885086 480.43486337 349.19885086 480.43486337 348.59090286 479.53878427 C346.41921275 476.43730008 344.72528232 474.78410576 341.29476029 473.25069833 Z " fill="#FDB24D" transform="translate(270.705239713192,152.7493016719818)"/>
<path d="M0 0 C0.33 0 0.66 0 1 0 C1.33 48.84 1.66 97.68 2 148 C17.85780518 148 33.71561035 148 50.05395508 148 C133.21119379 148 216.3684325 148 529 148 C529.33 148.99 529.66 149.98 530 151 C355.1 151 180.2 151 0 151 C0 101.17 0 51.34 0 0 Z " fill="#FFFCDB" transform="translate(367,870)"/>
<path d="M0 0 C-1.28965176 1.37562854 -2.62689293 2.70766393 -4 4 C-4.66 4 -5.32 4 -6 4 C-6 53.83 -6 103.66 -6 155 C-8.714835 152.285165 -8.25819837 150.84804446 -8.27415466 147.0471344 C-8.28412979 145.77818329 -8.29410492 144.50923218 -8.30438232 143.201828 C-8.30527819 141.7876283 -8.30594173 140.37342843 -8.30639648 138.95922852 C-8.31401439 137.47613099 -8.32244124 135.99303742 -8.33161926 134.50994873 C-8.35360635 130.47486289 -8.36236866 126.43985285 -8.36744571 122.40471387 C-8.371084 119.88565939 -8.37732124 117.36662492 -8.3844471 114.84757805 C-8.4089552 106.06496174 -8.42199664 97.28240462 -8.42553711 88.49975586 C-8.42917457 80.30396985 -8.45908126 72.10855784 -8.50094169 63.9128862 C-8.53559054 56.88354468 -8.5510846 49.85432743 -8.55178314 42.82490104 C-8.55257775 38.62332577 -8.56139991 34.42213129 -8.58978081 30.220644 C-8.61586977 26.26999658 -8.61821888 22.32004814 -8.60212517 18.36935425 C-8.60030335 16.9176831 -8.60706729 15.4659726 -8.62294388 14.01438713 C-8.64326357 12.0363103 -8.62991728 10.05797214 -8.61473083 8.07984924 C-8.61674216 6.97168633 -8.61875349 5.86352343 -8.62082577 4.72177982 C-8 2 -8 2 -5.64907932 0.05750942 C-3 -1 -3 -1 0 0 Z " fill="#E8B677" transform="translate(373,866)"/>
<path d="M0 0 C0.99 0 1.98 0 3 0 C3 0.66 3 1.32 3 2 C3.66 2 4.32 2 5 2 C5.33 3.65 5.66 5.3 6 7 C6.99 7.33 7.98 7.66 9 8 C9 8.99 9 9.98 9 11 C10.32 11.66 11.64 12.32 13 13 C13 13.99 13 14.98 13 16 C13.66 16 14.32 16 15 16 C15 17.65 15 19.3 15 21 C10.85307663 17.23006967 7.79947219 13.02908926 4.6484375 8.40234375 C3.57631737 6.83989379 2.45777558 5.307983 1.2890625 3.81640625 C0 2 0 2 0 0 Z " fill="#F9D8A2" transform="translate(807,895)"/>
<path d="M0 0 C0.99 0 1.98 0 3 0 C3 0.66 3 1.32 3 2 C3.66 2 4.32 2 5 2 C5.33 3.65 5.66 5.3 6 7 C6.99 7.33 7.98 7.66 9 8 C9 8.99 9 9.98 9 11 C10.32 11.66 11.64 12.32 13 13 C13 13.99 13 14.98 13 16 C13.66 16 14.32 16 15 16 C15 17.65 15 19.3 15 21 C10.85307663 17.23006967 7.79947219 13.02908926 4.6484375 8.40234375 C3.57631737 6.83989379 2.45777558 5.307983 1.2890625 3.81640625 C0 2 0 2 0 0 Z " fill="#F9D8A2" transform="translate(727,783)"/>
<path d="M0 0 C0.99 0 1.98 0 3 0 C3 0.66 3 1.32 3 2 C3.66 2 4.32 2 5 2 C5.33 3.65 5.66 5.3 6 7 C6.99 7.33 7.98 7.66 9 8 C9 8.99 9 9.98 9 11 C10.32 11.66 11.64 12.32 13 13 C13 13.99 13 14.98 13 16 C13.66 16 14.32 16 15 16 C15 17.65 15 19.3 15 21 C10.85307663 17.23006967 7.79947219 13.02908926 4.6484375 8.40234375 C3.57631737 6.83989379 2.45777558 5.307983 1.2890625 3.81640625 C0 2 0 2 0 0 Z " fill="#F9D8A2" transform="translate(647,671)"/>
<path d="M0 0 C2.475 0.495 2.475 0.495 5 1 C5.33 3.31 5.66 5.62 6 8 C6.99 8 7.98 8 9 8 C9 8.66 9 9.32 9 10 C9.66 10 10.32 10 11 10 C11 10.66 11 11.32 11 12 C11.66 12 12.32 12 13 12 C13 13.98 13 15.96 13 18 C9.54434052 14.79004108 6.88956568 11.19446712 4.25 7.3125 C3.83878906 6.71888672 3.42757812 6.12527344 3.00390625 5.51367188 C0 1.13754931 0 1.13754931 0 0 Z " fill="#F6CE8D" transform="translate(841,943)"/>
<path d="M0 0 C2.475 0.495 2.475 0.495 5 1 C5.33 3.31 5.66 5.62 6 8 C6.99 8 7.98 8 9 8 C9 8.66 9 9.32 9 10 C9.66 10 10.32 10 11 10 C11 10.66 11 11.32 11 12 C11.66 12 12.32 12 13 12 C13 13.98 13 15.96 13 18 C9.54434052 14.79004108 6.88956568 11.19446712 4.25 7.3125 C3.83878906 6.71888672 3.42757812 6.12527344 3.00390625 5.51367188 C0 1.13754931 0 1.13754931 0 0 Z " fill="#F6CE8D" transform="translate(761,831)"/>
<path d="M0 0 C2.475 0.495 2.475 0.495 5 1 C5.33 3.31 5.66 5.62 6 8 C6.99 8 7.98 8 9 8 C9 8.66 9 9.32 9 10 C9.66 10 10.32 10 11 10 C11 10.66 11 11.32 11 12 C11.66 12 12.32 12 13 12 C13 13.98 13 15.96 13 18 C9.54434052 14.79004108 6.88956568 11.19446712 4.25 7.3125 C3.83878906 6.71888672 3.42757812 6.12527344 3.00390625 5.51367188 C0 1.13754931 0 1.13754931 0 0 Z " fill="#F6CE8D" transform="translate(681,719)"/>
<path d="M0 0 C2.3125 0 2.3125 0 5 1 C5.92637918 2.9976423 6.52517449 5.01884416 7.17578125 7.12109375 C7.9074702 9.30309347 7.9074702 9.30309347 10.6875 10.5 C11.450625 10.665 12.21375 10.83 13 11 C13 13.31 13 15.62 13 18 C7.86367183 13.3452026 3.76689771 7.80457439 0 2 C0 1.34 0 0.68 0 0 Z " fill="#FBDAA6" transform="translate(824,919)"/>
<path d="M0 0 C0.99 0.33 1.98 0.66 3 1 C-1.95 5.95 -6.9 10.9 -12 16 C-12.33 14.68 -12.66 13.36 -13 12 C-12.34 12 -11.68 12 -11 12 C-11 11.34 -11 10.68 -11 10 C-9.125 7.875 -9.125 7.875 -7 6 C-6.34 6 -5.68 6 -5 6 C-5 5.34 -5 4.68 -5 4 C-4.34 4 -3.68 4 -3 4 C-3 3.34 -3 2.68 -3 2 C-2.01 1.34 -1.02 0.68 0 0 Z " fill="#EBCA9D" transform="translate(386,849)"/>
<path d="M0 0 C0.99 0.33 1.98 0.66 3 1 C-1.95 5.95 -6.9 10.9 -12 16 C-12.33 14.68 -12.66 13.36 -13 12 C-12.34 12 -11.68 12 -11 12 C-11 11.34 -11 10.68 -11 10 C-9.125 7.875 -9.125 7.875 -7 6 C-6.34 6 -5.68 6 -5 6 C-5 5.34 -5 4.68 -5 4 C-4.34 4 -3.68 4 -3 4 C-3 3.34 -3 2.68 -3 2 C-2.01 1.34 -1.02 0.68 0 0 Z " fill="#EBCA9D" transform="translate(402,833)"/>
<path d="M0 0 C0.99 0.33 1.98 0.66 3 1 C-1.95 5.95 -6.9 10.9 -12 16 C-12.33 14.68 -12.66 13.36 -13 12 C-12.34 12 -11.68 12 -11 12 C-11 11.34 -11 10.68 -11 10 C-9.125 7.875 -9.125 7.875 -7 6 C-6.34 6 -5.68 6 -5 6 C-5 5.34 -5 4.68 -5 4 C-4.34 4 -3.68 4 -3 4 C-3 3.34 -3 2.68 -3 2 C-2.01 1.34 -1.02 0.68 0 0 Z " fill="#EBCA9D" transform="translate(418,817)"/>
<path d="M0 0 C2.3125 0 2.3125 0 5 1 C5.92637918 2.9976423 6.52517449 5.01884416 7.17578125 7.12109375 C7.9074702 9.30309347 7.9074702 9.30309347 10.6875 10.5 C11.450625 10.665 12.21375 10.83 13 11 C13 13.31 13 15.62 13 18 C7.86367183 13.3452026 3.76689771 7.80457439 0 2 C0 1.34 0 0.68 0 0 Z " fill="#FBDAA6" transform="translate(744,807)"/>
<path d="M0 0 C0.99 0.33 1.98 0.66 3 1 C-1.95 5.95 -6.9 10.9 -12 16 C-12.33 14.68 -12.66 13.36 -13 12 C-12.34 12 -11.68 12 -11 12 C-11 11.34 -11 10.68 -11 10 C-9.125 7.875 -9.125 7.875 -7 6 C-6.34 6 -5.68 6 -5 6 C-5 5.34 -5 4.68 -5 4 C-4.34 4 -3.68 4 -3 4 C-3 3.34 -3 2.68 -3 2 C-2.01 1.34 -1.02 0.68 0 0 Z " fill="#EBCA9D" transform="translate(434,801)"/>
<path d="M0 0 C0.99 0.33 1.98 0.66 3 1 C-1.95 5.95 -6.9 10.9 -12 16 C-12.33 14.68 -12.66 13.36 -13 12 C-12.34 12 -11.68 12 -11 12 C-11 11.34 -11 10.68 -11 10 C-9.125 7.875 -9.125 7.875 -7 6 C-6.34 6 -5.68 6 -5 6 C-5 5.34 -5 4.68 -5 4 C-4.34 4 -3.68 4 -3 4 C-3 3.34 -3 2.68 -3 2 C-2.01 1.34 -1.02 0.68 0 0 Z " fill="#EBCA9D" transform="translate(450,785)"/>
<path d="M0 0 C0.99 0.33 1.98 0.66 3 1 C-1.95 5.95 -6.9 10.9 -12 16 C-12.33 14.68 -12.66 13.36 -13 12 C-12.34 12 -11.68 12 -11 12 C-11 11.34 -11 10.68 -11 10 C-9.125 7.875 -9.125 7.875 -7 6 C-6.34 6 -5.68 6 -5 6 C-5 5.34 -5 4.68 -5 4 C-4.34 4 -3.68 4 -3 4 C-3 3.34 -3 2.68 -3 2 C-2.01 1.34 -1.02 0.68 0 0 Z " fill="#EBCA9D" transform="translate(466,769)"/>
<path d="M0 0 C0.99 0.33 1.98 0.66 3 1 C-1.95 5.95 -6.9 10.9 -12 16 C-12.33 14.68 -12.66 13.36 -13 12 C-12.34 12 -11.68 12 -11 12 C-11 11.34 -11 10.68 -11 10 C-9.125 7.875 -9.125 7.875 -7 6 C-6.34 6 -5.68 6 -5 6 C-5 5.34 -5 4.68 -5 4 C-4.34 4 -3.68 4 -3 4 C-3 3.34 -3 2.68 -3 2 C-2.01 1.34 -1.02 0.68 0 0 Z " fill="#EBCA9D" transform="translate(482,753)"/>
<path d="M0 0 C0.99 0.33 1.98 0.66 3 1 C-1.95 5.95 -6.9 10.9 -12 16 C-12.33 14.68 -12.66 13.36 -13 12 C-12.34 12 -11.68 12 -11 12 C-11 11.34 -11 10.68 -11 10 C-9.125 7.875 -9.125 7.875 -7 6 C-6.34 6 -5.68 6 -5 6 C-5 5.34 -5 4.68 -5 4 C-4.34 4 -3.68 4 -3 4 C-3 3.34 -3 2.68 -3 2 C-2.01 1.34 -1.02 0.68 0 0 Z " fill="#EBCA9D" transform="translate(498,737)"/>
<path d="M0 0 C0.99 0.33 1.98 0.66 3 1 C-1.95 5.95 -6.9 10.9 -12 16 C-12.33 14.68 -12.66 13.36 -13 12 C-12.34 12 -11.68 12 -11 12 C-11 11.34 -11 10.68 -11 10 C-9.125 7.875 -9.125 7.875 -7 6 C-6.34 6 -5.68 6 -5 6 C-5 5.34 -5 4.68 -5 4 C-4.34 4 -3.68 4 -3 4 C-3 3.34 -3 2.68 -3 2 C-2.01 1.34 -1.02 0.68 0 0 Z " fill="#EBCA9D" transform="translate(514,721)"/>
<path d="M0 0 C0.99 0.33 1.98 0.66 3 1 C-1.95 5.95 -6.9 10.9 -12 16 C-12.33 14.68 -12.66 13.36 -13 12 C-12.34 12 -11.68 12 -11 12 C-11 11.34 -11 10.68 -11 10 C-9.125 7.875 -9.125 7.875 -7 6 C-6.34 6 -5.68 6 -5 6 C-5 5.34 -5 4.68 -5 4 C-4.34 4 -3.68 4 -3 4 C-3 3.34 -3 2.68 -3 2 C-2.01 1.34 -1.02 0.68 0 0 Z " fill="#EBCA9D" transform="translate(530,705)"/>
<path d="M0 0 C2.3125 0 2.3125 0 5 1 C5.92637918 2.9976423 6.52517449 5.01884416 7.17578125 7.12109375 C7.9074702 9.30309347 7.9074702 9.30309347 10.6875 10.5 C11.450625 10.665 12.21375 10.83 13 11 C13 13.31 13 15.62 13 18 C7.86367183 13.3452026 3.76689771 7.80457439 0 2 C0 1.34 0 0.68 0 0 Z " fill="#FBDAA6" transform="translate(664,695)"/>
<path d="M0 0 C0.99 0.33 1.98 0.66 3 1 C-1.95 5.95 -6.9 10.9 -12 16 C-12.33 14.68 -12.66 13.36 -13 12 C-12.34 12 -11.68 12 -11 12 C-11 11.34 -11 10.68 -11 10 C-9.125 7.875 -9.125 7.875 -7 6 C-6.34 6 -5.68 6 -5 6 C-5 5.34 -5 4.68 -5 4 C-4.34 4 -3.68 4 -3 4 C-3 3.34 -3 2.68 -3 2 C-2.01 1.34 -1.02 0.68 0 0 Z " fill="#EBCA9D" transform="translate(546,689)"/>
<path d="M0 0 C0.99 0.33 1.98 0.66 3 1 C-1.95 5.95 -6.9 10.9 -12 16 C-12.33 14.68 -12.66 13.36 -13 12 C-12.34 12 -11.68 12 -11 12 C-11 11.34 -11 10.68 -11 10 C-9.125 7.875 -9.125 7.875 -7 6 C-6.34 6 -5.68 6 -5 6 C-5 5.34 -5 4.68 -5 4 C-4.34 4 -3.68 4 -3 4 C-3 3.34 -3 2.68 -3 2 C-2.01 1.34 -1.02 0.68 0 0 Z " fill="#EBCA9D" transform="translate(562,673)"/>
<path d="M0 0 C0.99 0.33 1.98 0.66 3 1 C-1.95 5.95 -6.9 10.9 -12 16 C-12.33 14.68 -12.66 13.36 -13 12 C-12.34 12 -11.68 12 -11 12 C-11 11.34 -11 10.68 -11 10 C-9.125 7.875 -9.125 7.875 -7 6 C-6.34 6 -5.68 6 -5 6 C-5 5.34 -5 4.68 -5 4 C-4.34 4 -3.68 4 -3 4 C-3 3.34 -3 2.68 -3 2 C-2.01 1.34 -1.02 0.68 0 0 Z " fill="#EBCA9D" transform="translate(578,657)"/>
<path d="M0 0 C0.99 0.33 1.98 0.66 3 1 C-1.95 5.95 -6.9 10.9 -12 16 C-12.33 14.68 -12.66 13.36 -13 12 C-12.34 12 -11.68 12 -11 12 C-11 11.34 -11 10.68 -11 10 C-9.125 7.875 -9.125 7.875 -7 6 C-6.34 6 -5.68 6 -5 6 C-5 5.34 -5 4.68 -5 4 C-4.34 4 -3.68 4 -3 4 C-3 3.34 -3 2.68 -3 2 C-2.01 1.34 -1.02 0.68 0 0 Z " fill="#EBCA9D" transform="translate(594,641)"/>
<path d="M0 0 C1.32 0.33 2.64 0.66 4 1 C0.37 4.63 -3.26 8.26 -7 12 C-7.33 10.68 -7.66 9.36 -8 8 C-7.34 8 -6.68 8 -6 8 C-6 7.34 -6 6.68 -6 6 C-4.125 3.875 -4.125 3.875 -2 2 C-1.34 2 -0.68 2 0 2 C0 1.34 0 0.68 0 0 Z " fill="#EBCA9D" transform="translate(605,629)"/>
<path d="M0 0 C0 3.96 0 7.92 0 12 C-2.5625 9.75 -2.5625 9.75 -5 7 C-5 4.2544548 -4.27144023 3.31668027 -2.5 1.25 C-1 0 -1 0 0 0 Z " fill="#FEF9EE" transform="translate(693,545)"/>
<path d="M0 0 C0.99 0 1.98 0 3 0 C1.64348014 4.56283954 0.04089221 5.69091874 -4 8 C-6.27537692 10.57183314 -6.27537692 10.57183314 -8 13 C-8 11.35 -8 9.7 -8 8 C-7.34 8 -6.68 8 -6 8 C-6 7.34 -6 6.68 -6 6 C-5.34 6 -4.68 6 -4 6 C-4 5.34 -4 4.68 -4 4 C-3.34 4 -2.68 4 -2 4 C-2 3.34 -2 2.68 -2 2 C-1.34 2 -0.68 2 0 2 C0 1.34 0 0.68 0 0 Z " fill="#EBC494" transform="translate(695,539)"/>
<path d="M0 0 C0.66 0 1.32 0 2 0 C0.90299157 3.2910253 0.12380142 3.96023288 -2.5 6.0625 C-5.18106401 8.17721767 -5.18106401 8.17721767 -7 11 C-7.66 11 -8.32 11 -9 11 C-9.33 11.66 -9.66 12.32 -10 13 C-10 12.01 -10 11.02 -10 10 C-9.34 10 -8.68 10 -8 10 C-8 8.35 -8 6.7 -8 5 C-7.34 5.33 -6.68 5.66 -6 6 C-5.38125 5.34 -4.7625 4.68 -4.125 4 C-2 2 -2 2 0 2 C0 1.34 0 0.68 0 0 Z " fill="#F5BB7B" transform="translate(885,349)"/>
<path d="M0 0 C2.03833424 1.2739589 4.03852126 2.61061923 6 4 C6 4.66 6 5.32 6 6 C6.66 6 7.32 6 8 6 C8 7.65 8 9.3 8 11 C2.19794344 5.35475578 2.19794344 5.35475578 0 2 C0 1.34 0 0.68 0 0 Z " fill="#FAD9A6" transform="translate(874,989)"/>
<path d="M0 0 C1.98 0.99 1.98 0.99 4 2 C4 2.99 4 3.98 4 5 C4.66 5 5.32 5 6 5 C6 6.65 6 8.3 6 10 C2.46413986 6.82679218 0.41421969 4.83256305 0 0 Z " fill="#F7CE91" transform="translate(816,906)"/>
<path d="M0 0 C2.03833424 1.2739589 4.03852126 2.61061923 6 4 C6 4.66 6 5.32 6 6 C6.66 6 7.32 6 8 6 C8 7.65 8 9.3 8 11 C2.19794344 5.35475578 2.19794344 5.35475578 0 2 C0 1.34 0 0.68 0 0 Z " fill="#FAD9A6" transform="translate(794,877)"/>
<path d="M0 0 C1.98 0.99 1.98 0.99 4 2 C4 2.99 4 3.98 4 5 C4.66 5 5.32 5 6 5 C6 6.65 6 8.3 6 10 C2.46413986 6.82679218 0.41421969 4.83256305 0 0 Z " fill="#F7CE91" transform="translate(736,794)"/>
<path d="M0 0 C2.03833424 1.2739589 4.03852126 2.61061923 6 4 C6 4.66 6 5.32 6 6 C6.66 6 7.32 6 8 6 C8 7.65 8 9.3 8 11 C2.19794344 5.35475578 2.19794344 5.35475578 0 2 C0 1.34 0 0.68 0 0 Z " fill="#FAD9A6" transform="translate(714,765)"/>
<path d="M0 0 C1.98 0.99 1.98 0.99 4 2 C4 2.99 4 3.98 4 5 C4.66 5 5.32 5 6 5 C6 6.65 6 8.3 6 10 C2.46413986 6.82679218 0.41421969 4.83256305 0 0 Z " fill="#F7CE91" transform="translate(656,682)"/>
<path d="M0 0 C2.03833424 1.2739589 4.03852126 2.61061923 6 4 C6 4.66 6 5.32 6 6 C6.66 6 7.32 6 8 6 C8 7.65 8 9.3 8 11 C2.19794344 5.35475578 2.19794344 5.35475578 0 2 C0 1.34 0 0.68 0 0 Z " fill="#FAD9A6" transform="translate(634,653)"/>
<path d="M0 0 C0.8125 3.125 0.8125 3.125 1 6 C-0.65 4.35 -2.3 2.7 -4 1 C-5.65 1.66 -7.3 2.32 -9 3 C-9 1.68 -9 0.36 -9 -1 C-5.41772072 -2.32677011 -3.25207613 -2.02156084 0 0 Z " fill="#F6D9AB" transform="translate(618,626)"/>
<path d="M0 0 C2.475 0.495 2.475 0.495 5 1 C7 7.625 7 7.625 7 11 C5.83051998 9.35616456 4.6644855 7.70987731 3.5 6.0625 C2.8503125 5.14597656 2.200625 4.22945312 1.53125 3.28515625 C0 1 0 1 0 0 Z " fill="#FBDCAA" transform="translate(841,943)"/>
<path d="M0 0 C2.475 0.495 2.475 0.495 5 1 C7 7.625 7 7.625 7 11 C5.83051998 9.35616456 4.6644855 7.70987731 3.5 6.0625 C2.8503125 5.14597656 2.200625 4.22945312 1.53125 3.28515625 C0 1 0 1 0 0 Z " fill="#FBDCAA" transform="translate(761,831)"/>
<path d="M0 0 C2.475 0.495 2.475 0.495 5 1 C7 7.625 7 7.625 7 11 C5.83051998 9.35616456 4.6644855 7.70987731 3.5 6.0625 C2.8503125 5.14597656 2.200625 4.22945312 1.53125 3.28515625 C0 1 0 1 0 0 Z " fill="#FBDCAA" transform="translate(681,719)"/>
<path d="M0 0 C0.99 0 1.98 0 3 0 C3 0.66 3 1.32 3 2 C3.66 2 4.32 2 5 2 C5.66 4.64 6.32 7.28 7 10 C4.4000702 7.48972295 2.00908773 5.0136316 0 2 C0 1.34 0 0.68 0 0 Z " fill="#F9DAA4" transform="translate(887,1007)"/>
<path d="M0 0 C-1.28965176 1.37562854 -2.62689293 2.70766393 -4 4 C-4.66 4 -5.32 4 -6 4 C-6.33 5.32 -6.66 6.64 -7 8 C-7 5.69 -7 3.38 -7 1 C-3.375 -1.125 -3.375 -1.125 0 0 Z " fill="#EDC48F" transform="translate(373,866)"/>
<path d="M0 0 C0.66 0 1.32 0 2 0 C0.4169423 4.2742558 -2.50568404 6.26531794 -6 9 C-5.8125 6.625 -5.8125 6.625 -5 4 C-2.4375 2.6875 -2.4375 2.6875 0 2 C0 1.34 0 0.68 0 0 Z " fill="#F5BA7A" transform="translate(933,301)"/>
<path d="M0 0 C2.475 0.495 2.475 0.495 5 1 C5 3.31 5 5.62 5 8 C1.39345961 5.59563974 1.14547068 4.05320393 0 0 Z " fill="#F8CA87" transform="translate(832,929)"/>
<path d="M0 0 C2.475 0.495 2.475 0.495 5 1 C5 3.31 5 5.62 5 8 C1.39345961 5.59563974 1.14547068 4.05320393 0 0 Z " fill="#F8CA87" transform="translate(752,817)"/>
<path d="M0 0 C2.475 0.495 2.475 0.495 5 1 C5 3.31 5 5.62 5 8 C1.39345961 5.59563974 1.14547068 4.05320393 0 0 Z " fill="#F8CA87" transform="translate(672,705)"/>
<path d="M0 0 C2.475 0.99 2.475 0.99 5 2 C5 3.65 5 5.3 5 7 C2.47411298 4.63707344 1.11179163 3.33537489 0 0 Z " fill="#F9D49B" transform="translate(619,632)"/>
</svg>
